<?xml version="1.0" encoding="UTF-8" standalone="no"?>
<svg
   version="1.0"
   viewBox="0 0 389.27563 71.962292"
   enable-background="new 0 0 100 100"
   xml:space="preserve"
   id="svg1303"
   sodipodi:docname="WAC32.svg"
   width="102.99584mm"
   height="19.040024mm"
   inkscape:version="1.1.1 (3bf5ae0d25, 2021-09-20)"
   xmlns:inkscape="http://www.inkscape.org/namespaces/inkscape"
   xmlns:sodipodi="http://sodipodi.sourceforge.net/DTD/sodipodi-0.dtd"
   xmlns="http://www.w3.org/2000/svg"
   xmlns:svg="http://www.w3.org/2000/svg"
   xmlns:rdf="http://www.w3.org/1999/02/22-rdf-syntax-ns#"
   xmlns:cc="http://creativecommons.org/ns#"
   xmlns:dc="http://purl.org/dc/elements/1.1/"><metadata
   id="metadata7"><rdf:RDF><cc:Work
       rdf:about=""><dc:format>image/svg+xml</dc:format><dc:type
         rdf:resource="http://purl.org/dc/dcmitype/StillImage" /></cc:Work></rdf:RDF></metadata><defs
   id="defs1307" /><sodipodi:namedview
   id="namedview1305"
   pagecolor="#ffffff"
   bordercolor="#eeeeee"
   borderopacity="1"
   inkscape:pageshadow="0"
   inkscape:pageopacity="1"
   inkscape:pagecheckerboard="0"
   showgrid="false"
   fit-margin-top="0"
   fit-margin-left="0"
   fit-margin-right="0"
   fit-margin-bottom="0"
   units="mm"
   inkscape:zoom="2.1047147"
   inkscape:cx="186.96121"
   inkscape:cy="38.247464"
   inkscape:window-width="1858"
   inkscape:window-height="1057"
   inkscape:window-x="-8"
   inkscape:window-y="-8"
   inkscape:window-maximized="1"
   inkscape:current-layer="svg1303"
   inkscape:document-units="mm"
   inkscape:document-rotation="0" />
	


<path
   style="fill:#000000;stroke-width:0.377953"
   d="M 19.109374,67.904398 C 12.051704,65.001683 6.6196245,59.44521 4.0032445,52.452366 2.6745145,48.901009 2.5218545,46.809229 2.5218545,32.152674 V 15.81234 h 3.56602 3.56603 l 0.2536,15.822048 c 0.2902695,18.105978 0.8029195,20.037468 6.7797595,25.546734 10.02663,9.242192 25.86871,4.888139 30.61341,-8.413833 0.70553,-1.977978 0.99565,-7.076183 1.01847,-17.898369 l 0.0302,-15.132624 3.8191,0.219969 3.81914,0.219968 0.36359,16.367622 c 0.35792,16.09939 0.39537,16.421254 2.295,19.641147 3.79155,6.426785 9.23698,9.704467 16.1822,9.740372 5.66649,0.03024 9.35093,-1.252195 12.950891,-4.504554 5.649789,-5.104252 5.989229,-6.423761 6.399308,-24.876965 l 0.36359,-16.367622 3.867062,-0.22148 3.867065,-0.22148 -0.2298,17.316623 -0.22979,17.316624 -2.489806,4.592089 c -2.811515,5.185398 -7.571074,9.816302 -12.850356,12.502979 -3.139014,1.597493 -4.502214,1.818633 -11.211744,1.818633 -6.62241,0 -8.07356,-0.228661 -10.91176,-1.719874 -4.77275,-2.507527 -7.83194,-4.968869 -10.14576,-8.162985 l -2.04435,-2.822136 -1.91652,2.896063 c -2.29013,3.460649 -8.3918,7.679017 -13.20072,9.126312 -5.38764,1.621417 -13.0289,1.326274 -17.93836,-0.692901 z m 104.816306,0.670034 c -6.60294,-2.430311 -12.38638,-7.638463 -15.66311,-14.105083 -1.87503,-3.700384 -2.07912,-4.817197 -2.07912,-11.377625 0,-6.506041 0.21656,-7.715566 2.05024,-11.449664 5.28215,-10.756724 16.49295,-16.725165 28.32695,-15.080731 8.70082,1.209033 16.88689,7.340674 20.63581,15.45687 2.07946,4.501833 2.09216,4.61658 2.33223,21.075931 l 0.24151,16.549493 h -4.06049 -4.06054 v -4.085631 -4.085594 l -2.81461,2.542828 c -4.11935,3.721588 -9.85248,5.639433 -16.67195,5.577147 -3.08576,-0.02646 -6.79231,-0.486274 -8.2368,-1.017941 z m 17.17535,-8.491804 c 3.85602,-1.968529 5.92055,-3.944202 8.25305,-7.897777 1.6563,-2.807508 1.93126,-4.102034 1.93126,-9.093127 0,-5.018873 -0.27137,-6.281311 -1.97268,-9.175219 -5.37551,-9.144001 -16.16364,-12.584316 -25.12528,-8.01241 -3.72945,1.902614 -8.68222,7.518878 -9.62559,10.915049 -1.27022,4.572888 -0.87995,10.30715 0.97145,14.27452 2.6849,5.753386 6.98279,9.090331 13.92858,10.814324 2.60115,0.645619 8.66026,-0.30463 11.63921,-1.82536 z m 39.53832,8.204636 C 172.6029,65.0631 165.84216,57.616032 164.00712,49.966684 c -1.36649,-5.696201 -0.61459,-13.58846 1.75631,-18.434381 6.53397,-13.354923 21.94046,-18.828737 35.77311,-12.709909 6.55253,2.898482 12.88717,10.78012 14.47514,18.010129 l 0.49599,2.25823 h -3.661 -3.661 l -1.52795,-3.455395 C 203.3031,25.787534 192.0782,21.171257 182.83351,25.426287 c -9.06156,4.170746 -13.3113,12.688214 -11.17765,22.402659 1.16909,5.32286 6.5898,11.390173 11.75671,13.159105 9.76434,3.342917 20.15778,-1.259225 24.3992,-10.803704 1.35349,-3.045694 1.42832,-3.091653 5.0349,-3.091653 h 3.661 l -0.51114,2.364208 c -1.52285,7.043527 -7.77071,14.620233 -14.73797,17.872516 -5.50745,2.570911 -15.44769,3.032655 -20.61921,0.957846 z m 51.36518,-0.364346 c -6.39527,-2.978004 -11.97521,-11.049563 -11.97521,-17.322407 0,-1.894602 0.21468,-2.052775 2.78487,-2.052775 2.75852,0 2.79311,0.03402 3.65635,3.775484 1.10192,4.773883 3.82511,8.367949 7.65959,10.109253 9.60389,4.361311 20.29716,-2.34686 20.29716,-12.732926 0,-7.177323 -4.86195,-12.903307 -11.98106,-14.110261 -3.07299,-0.521008 -3.14423,-0.59743 -3.36318,-3.607484 -0.20976,-2.884989 -0.10658,-3.075213 1.66983,-3.075213 1.04145,0 2.697,-0.80349 3.67907,-1.785562 5.07326,-5.07326 -2.67314,-12.70851 -7.90594,-7.792517 -1.09425,1.027956 -2.61018,1.576139 -4.35878,1.576139 -3.10359,0 -3.3202,-0.761424 -1.20404,-4.232315 1.87223,-3.070828 7.16931,-5.546419 10.65687,-4.980472 8.186,1.32839 12.96015,10.488378 8.92021,17.11491 -0.82023,1.345436 -1.39188,2.516145 -1.2703,2.6016 0.12171,0.08542 1.42636,0.879836 2.89947,1.765304 5.40737,3.250281 9.25856,11.990892 8.31534,18.872391 -1.83681,13.400844 -16.3832,21.51001 -28.48025,15.876851 z m 30.94431,-0.822312 v -2.543169 l 17.44275,-8.727156 17.44274,-8.727194 -0.76131,-2.002393 C 292.83168,33.94504 277.8316,32.051307 271.59576,41.884202 c -1.15491,1.821128 -2.09987,4.038652 -2.09987,4.927824 0,3.15137 -0.74631,3.918047 -3.81392,3.918047 h -2.93088 l 0.45774,-3.339439 c 1.43959,-10.502816 9.64464,-17.742388 20.1086,-17.742388 10.55634,0 19.67664,8.083994 19.9163,17.653191 l 0.0884,3.538205 -13.7229,6.310412 -13.72286,6.310413 13.90473,0.197669 13.90473,0.19767 v 2.894097 2.894098 h -20.36855 -20.36859 z m 61.64447,0.818759 c -4.7616,-1.773657 -5.13089,-2.380498 -4.60032,-7.559282 0.5687,-5.550955 3.16459,-12.985777 5.92456,-16.968378 4.40235,-6.35263 12.21411,-11.298143 24.74543,-15.666029 4.94922,-1.72509 10.56204,-3.983849 12.47301,-5.019515 1.91093,-1.035629 2.81976,-1.648933 2.01955,-1.36286 -0.8002,0.28611 -5.38314,1.581354 -10.18431,2.87845 -4.80114,1.297096 -10.06212,2.846665 -11.69103,3.443452 -12.74207,4.668511 -22.17849,13.688769 -25.32978,24.212713 -0.7095,2.369423 -1.42084,4.728642 -1.58075,5.242696 -0.45359,1.458028 -3.62937,-0.940271 -4.7147,-3.560391 -1.52848,-3.690141 -0.98362,-10.832844 1.27835,-16.757745 3.86585,-10.126148 13.62316,-17.753122 27.66361,-21.623736 2.89678,-0.798538 11.57159,-2.320403 19.27744,-3.381845 7.70582,-1.061443 15.42626,-2.4464133 17.15656,-3.0777073 1.73027,-0.631295 4.75828,-2.597405 6.72888,-4.369134 1.97061,-1.771767 3.58296,-3.063534 3.58296,-2.870589 0,0.192756 -0.49323,2.950828 -1.09606,6.128693 -2.1766,11.4740783 -8.18336,25.8851913 -15.04596,36.0976633 -4.13764,6.157304 -13.12793,14.833437 -18.79321,18.136479 -9.15307,5.33658 -22.16814,8.180183 -27.81423,6.077065 z"
   id="path13181" /></svg>
